<svg xmlns="http://www.w3.org/2000/svg" viewBox="0 0 1800 800" preserveAspectRatio="xMidYMid slice">
  <defs>
    <linearGradient id="sky" x1="0" x2="0" y1="0" y2="1">
      <stop offset="0" stop-color="#59626a"/>
      <stop offset=".42" stop-color="#d39a5d"/>
      <stop offset=".64" stop-color="#f1c270"/>
      <stop offset="1" stop-color="#759651"/>
    </linearGradient>
    <linearGradient id="fairway" x1="0" x2="1">
      <stop offset="0" stop-color="#335f2b"/>
      <stop offset=".45" stop-color="#b8b75a"/>
      <stop offset="1" stop-color="#357532"/>
    </linearGradient>
    <filter id="soft"><feGaussianBlur stdDeviation="3"/></filter>
  </defs>
  <rect width="1800" height="800" fill="url(#sky)"/>
  <path d="M0 356c270-48 491-39 700-4 262 44 516 30 800-32 92-20 195-26 300-10v490H0Z" fill="#18351f" opacity=".72"/>
  <path d="M0 482c260-54 494-67 712-20 199 43 366 48 540 5 151-37 325-35 548 16v317H0Z" fill="url(#fairway)"/>
  <path d="M0 612c308-70 621-85 948-33 247 40 493 31 752-24l100-16v261H0Z" fill="#244b22" opacity=".48"/>
  <path d="M748 800c81-173 185-266 312-281 148-18 270 75 366 281Z" fill="#c6be67" opacity=".78"/>
  <path d="M780 617c137-53 304-55 485-10" fill="none" stroke="#e7d684" stroke-width="14" opacity=".65"/>
  <g stroke="#2d2d23" stroke-width="10" stroke-linecap="round">
    <path d="M860 520V263"/>
    <path d="M862 263c44 6 72 20 104 4v76c-32 16-60 2-104-4Z" fill="#f3f4ea" stroke-width="3"/>
  </g>
  <g fill="#1b321f">
    <path d="M225 398c18-48 0-113-49-138-38-20-79-8-95 25-38 0-71 32-62 75-38 19-25 69 19 73 26 47 92 41 116 6 41 21 89 8 101-39Z"/>
    <path d="M533 344c24-64-15-134-83-134-55 0-90 37-91 79-49 14-68 76-23 111-6 43 40 77 83 55 30 36 95 24 106-23 49-2 75-50 48-88Z"/>
    <path d="M1198 292c35-86-31-165-122-137-47 15-72 52-73 90-61 3-100 63-69 121-34 41-5 100 51 103 30 48 102 46 135 2 58 19 112-20 103-78 51-29 51-104-25-101Z"/>
    <path d="M1515 356c27-70-18-151-96-136-46 9-77 45-81 86-53 9-82 67-52 114-17 43 26 86 75 66 30 42 96 36 120-8 60 5 94-60 54-105 3-5 6-11 10-17Z"/>
  </g>
  <g fill="#1f4325" opacity=".85">
    <rect x="107" y="394" width="18" height="230"/>
    <rect x="460" y="330" width="20" height="272"/>
    <rect x="1070" y="284" width="22" height="270"/>
    <rect x="1445" y="352" width="18" height="236"/>
  </g>
  <g filter="url(#soft)" opacity=".95">
    <circle cx="84" cy="716" r="38" fill="#d55b8a"/>
    <circle cx="133" cy="690" r="26" fill="#f08aae"/>
    <circle cx="688" cy="720" r="35" fill="#d85888"/>
    <circle cx="760" cy="694" r="28" fill="#ef83a4"/>
    <circle cx="1620" cy="710" r="43" fill="#f0699c"/>
    <circle cx="1706" cy="684" r="30" fill="#e84987"/>
  </g>
</svg>
