<svg xmlns="http://www.w3.org/2000/svg" viewBox="0 0 260 130" role="img" aria-label="Stanthorpe Golf Club">
  <path d="M35 8c21 11 43 15 69 13 42-3 81 3 119 18-44-5-85 3-121 24-22 13-42 17-61 11 12 18 35 29 68 32-44 10-78-1-102-32 24 8 48 5 71-9-27 4-53-2-78-18 23 4 48 2 75-7C53 32 39 19 35 8Z" fill="#fff"/>
  <path d="M214 35c9-13 26-8 25 9 16-7 27 9 14 21 12 12 2 27-15 20 2 17-17 25-26 11-9 14-28 6-26-11-17 7-27-8-15-20-13-12-2-28 14-21-1-17 16-22 25-9Z" fill="#c8efc9"/>
  <text x="68" y="51" font-family="Arial, Helvetica, sans-serif" font-size="18" font-weight="800" fill="#fff">Stanthorpe</text>
  <text x="58" y="86" font-family="Arial Black, Arial, Helvetica, sans-serif" font-size="42" font-weight="900" fill="#fff">Golf</text>
  <text x="95" y="117" font-family="Arial Black, Arial, Helvetica, sans-serif" font-size="34" font-weight="900" fill="#c8efc9">Club</text>
</svg>
