<svg xmlns="http://www.w3.org/2000/svg" viewBox="0 0 600 360" preserveAspectRatio="xMidYMid slice">
  <rect width="600" height="360" fill="#7a9d50"/>
  <g fill="#1f5d31" opacity=".8"><path d="M0 250c85-80 151-83 222-10 78-90 158-88 244 8 51-62 92-68 134-18v130H0Z"/></g>
  <g fill="#e76395">
    <circle cx="112" cy="116" r="50"/><circle cx="83" cy="139" r="32"/><circle cx="137" cy="151" r="35"/><circle cx="114" cy="133" r="18" fill="#f4b2c7"/>
    <circle cx="336" cy="160" r="64"/><circle cx="292" cy="185" r="37"/><circle cx="378" cy="198" r="38"/><circle cx="337" cy="176" r="22" fill="#f3adc4"/>
    <circle cx="488" cy="100" r="42"/><circle cx="519" cy="125" r="33"/><circle cx="470" cy="133" r="30"/><circle cx="493" cy="118" r="17" fill="#f6b5cc"/>
  </g>
  <g stroke="#246b35" stroke-width="10" stroke-linecap="round"><path d="M116 160v165"/><path d="M337 220v140"/><path d="M496 146v190"/></g>
</svg>
