<?xml version="1.0" encoding="UTF-8"?>
<svg id="Layer_1" xmlns="http://www.w3.org/2000/svg" xmlns:xlink="http://www.w3.org/1999/xlink" version="1.1" viewBox="0 0 700 700">
  <!-- Generator: Adobe Illustrator 29.6.1, SVG Export Plug-In . SVG Version: 2.1.1 Build 9)  -->
  <defs>
    <style>
      .st0 {
        fill: #07182d;
      }

      .st1 {
        isolation: isolate;
      }

      .st2 {
        fill: none;
        stroke: url(#linear-gradient);
        stroke-miterlimit: 10;
        stroke-width: 8px;
      }
    </style>
    <linearGradient id="linear-gradient" x1="79.83" y1="672.41" x2="619.8" y2="132.44" gradientTransform="translate(0 752) scale(1 -1)" gradientUnits="userSpaceOnUse">
      <stop offset="0" stop-color="#1869ff"/>
      <stop offset=".31" stop-color="#02c8ff"/>
      <stop offset=".41" stop-color="#04c6fd"/>
      <stop offset=".46" stop-color="#0cbff9"/>
      <stop offset=".5" stop-color="#19b4f3"/>
      <stop offset=".53" stop-color="#26abed"/>
      <stop offset=".56" stop-color="#2ba6ea"/>
      <stop offset=".61" stop-color="#3a9ae2"/>
      <stop offset=".66" stop-color="#5486d5"/>
      <stop offset=".71" stop-color="#776ac3"/>
      <stop offset=".76" stop-color="#a446ac"/>
      <stop offset=".82" stop-color="#db1b90"/>
      <stop offset=".85" stop-color="#ff007f"/>
      <stop offset=".91" stop-color="#ff3f46"/>
      <stop offset=".97" stop-color="#ff7913"/>
      <stop offset="1" stop-color="#ff9000"/>
    </linearGradient>
  </defs>
  <rect class="st2" x="72.38" y="72.14" width="554.87" height="554.87" rx="35.09" ry="35.09"/>
  <g class="st1">
    <g class="st1">
      <g class="st1">
        <path class="st0" d="M217.35,438.22h18.82c8.35,0,14.3,1.62,17.88,4.85,3.09,2.8,4.63,6.97,4.63,12.52,0,6.32-2.08,10.88-6.22,13.68-3.62,2.41-8.9,3.62-15.85,3.62h-7.09v17.44h-12.16v-52.11h0ZM236.31,446.55h-6.8v18.02h7.24c6.27,0,9.41-2.99,9.41-8.97s-3.28-9.05-9.84-9.05h-.01Z"/>
        <path class="st0" d="M276.77,463.55h-11.58c.96-4.05,3.16-7.12,6.59-9.19,3.09-1.83,6.95-2.75,11.58-2.75,5.6,0,9.92,1.4,12.95,4.2,2.65,2.41,3.98,5.62,3.98,9.62v24.9h-8.83l-1.38-3.91c-2.89,3.33-7.04,4.99-12.45,4.99-4.2,0-7.5-1.18-9.91-3.55-2.17-2.07-3.26-4.87-3.26-8.39,0-3.28,1.28-5.86,3.84-7.74,2.46-1.83,6.25-3.18,11.36-4.05l9.34-1.52v-1.66c0-3.71-2-5.57-6.01-5.57-3.52,0-5.6,1.54-6.22,4.63h0ZM280.89,483.67c2.61,0,4.68-.8,6.22-2.39,1.25-1.35,1.88-2.97,1.88-4.85v-4.12l-6.44,1.3c-2.46.48-4.21,1.15-5.25,1.99s-1.56,1.97-1.56,3.37c0,3.14,1.71,4.7,5.14,4.7h0Z"/>
        <path class="st0" d="M320.62,490.33h-11.29v-37.63h9.41l1.23,5.72c2.07-4.53,5.36-6.8,9.84-6.8,1.69,0,3.11.17,4.27.51v10.49c-1.54-.48-3.16-.72-4.85-.72-2.56,0-4.66,1.23-6.3,3.69-1.54,2.32-2.32,5.36-2.32,9.12v15.63h.01Z"/>
        <path class="st0" d="M361.08,482.73v7.67c-2.36.67-4.66,1.01-6.88,1.01-4.1,0-7.24-1.13-9.41-3.4-1.88-1.98-2.82-4.7-2.82-8.18v-19.32h-5.72v-7.82h5.72l.72-9.05h10.57v9.05h7.74v7.82h-7.74v19.68c0,1.01.33,1.8.98,2.35s1.56.83,2.71.83c.92,0,2.29-.22,4.12-.65h.01Z"/>
        <path class="st0" d="M378.88,490.33h-11.29v-37.63h9.34l1.09,4.13c2.75-3.47,6.58-5.21,11.51-5.21s8.25,1.42,10.71,4.27c2.17,2.51,3.26,5.89,3.26,10.13v24.32h-11.29v-23.88c0-4.58-1.93-6.88-5.79-6.88-2.36,0-4.25.87-5.64,2.6-1.26,1.5-1.88,3.45-1.88,5.86v22.29h-.02Z"/>
        <path class="st0" d="M438.01,479.4h11.51c-.97,3.96-3.06,6.97-6.3,9.05-3.18,1.98-7.29,2.97-12.3,2.97-6.37,0-11.36-1.98-14.98-5.93-3.23-3.57-4.85-8.23-4.85-13.97,0-6.75,2-11.89,6.01-15.42,3.43-2.99,7.91-4.49,13.46-4.49,6.56,0,11.51,2.12,14.84,6.37,3.04,3.86,4.56,9.29,4.56,16.28h-27.43c.72,6.18,3.71,9.26,8.97,9.26,1.69,0,3.11-.36,4.27-1.09s1.91-1.74,2.24-3.04h0ZM430.33,458.7c-4.58,0-7.19,2.99-7.82,8.97h15.85c-.29-5.98-2.97-8.97-8.03-8.97Z"/>
        <path class="st0" d="M468.83,490.33h-11.29v-37.63h9.41l1.23,5.72c2.07-4.53,5.36-6.8,9.84-6.8,1.69,0,3.11.17,4.27.51v10.49c-1.54-.48-3.16-.72-4.85-.72-2.56,0-4.66,1.23-6.3,3.69-1.54,2.32-2.32,5.36-2.32,9.12v15.63h.01Z"/>
      </g>
    </g>
  </g>
  <g>
    <rect class="st0" x="271.56" y="325.41" width="15.8" height="63.2"/>
    <path class="st0" d="M367.01,357c0,20.37,15.59,32.74,33.37,32.74,7.02,0,12.41-1.68,14.4-2.25v-16.96c-.69.36-5.87,3.34-13.28,3.34-10.53,0-17.32-7.48-17.32-16.87s7.09-16.87,17.32-16.87c7.54,0,12.64,3.07,13.28,3.4v-16.98c-1.49-.44-6.98-2.25-14.4-2.25-19.25,0-33.37,13.82-33.37,32.7Z"/>
    <path class="st0" d="M202.08,357c0,20.37,15.58,32.74,33.33,32.74,7.07,0,12.44-1.68,14.43-2.25v-16.96c-.7.36-5.86,3.34-13.27,3.34-10.55,0-17.33-7.48-17.33-16.87s7.08-16.87,17.33-16.87c7.54,0,12.61,3.07,13.27,3.4v-16.98c-1.49-.44-6.99-2.25-14.43-2.25-19.22,0-33.33,13.82-33.33,32.7h0Z"/>
    <path class="st0" d="M464.5,324.3c-19.26,0-33.07,14.64-33.07,32.7s13.81,32.74,33.07,32.74,33.07-14.66,33.07-32.74-13.82-32.7-33.07-32.7ZM464.5,373.65c-9.38,0-16.35-7.44-16.35-16.65s6.97-16.62,16.35-16.62,16.35,7.45,16.35,16.62-6.98,16.65-16.35,16.65Z"/>
    <path class="st0" d="M336.77,350.45l-4.36-1.4c-2.59-.83-7.24-2.18-7.24-6.01,0-3.05,3.43-5.2,9.77-5.2,5.45,0,12.12,1.86,12.35,1.94v-13.5c-.48-.13-7.7-2.01-15.4-2.01-14.58,0-23.35,7.95-23.35,19.76,0,10.46,7.37,15.69,16.14,18.48.99.33,2.42.79,3.4,1.12,3.9,1.24,7.03,3.08,7.03,6.26,0,3.61-3.61,5.92-11.48,5.92-6.9,0-13.53-1.99-14.92-2.35v14.56c.79.16,8.66,1.72,17.05,1.72,12.09,0,25.93-5.33,25.93-21.22,0-7.69-4.67-14.79-14.93-18.07h.01Z"/>
    <path class="st0" d="M177.47,249.59c-4.32,0-7.86,3.55-7.86,7.89v16.59c0,4.39,3.54,7.9,7.86,7.9s7.84-3.5,7.84-7.9v-16.59c0-4.35-3.51-7.89-7.84-7.89h0Z"/>
    <path class="st0" d="M220.57,281.97c4.33,0,7.85-3.5,7.85-7.9v-38.37c0-4.34-3.52-7.9-7.85-7.9s-7.84,3.56-7.84,7.9v38.37c0,4.39,3.51,7.9,7.84,7.9Z"/>
    <path class="st0" d="M263.66,198.02c-4.33,0-7.85,3.53-7.85,7.89v83.93c0,4.38,3.52,7.92,7.85,7.92s7.84-3.55,7.84-7.92v-83.93c0-4.36-3.52-7.89-7.84-7.89Z"/>
    <path class="st0" d="M314.6,274.07v-38.37c0-4.34-3.51-7.9-7.84-7.9s-7.84,3.56-7.84,7.9v38.37c0,4.39,3.52,7.9,7.84,7.9s7.84-3.5,7.84-7.9Z"/>
    <path class="st0" d="M349.86,249.59c-4.33,0-7.85,3.55-7.85,7.89v16.59c0,4.39,3.52,7.9,7.85,7.9s7.79-3.5,7.79-7.9v-16.59c0-4.35-3.51-7.89-7.79-7.89h0Z"/>
    <path class="st0" d="M392.95,281.97c4.31,0,7.83-3.5,7.83-7.9v-38.37c0-4.34-3.51-7.9-7.83-7.9s-7.82,3.56-7.82,7.9v38.37c0,4.39,3.49,7.9,7.82,7.9Z"/>
    <path class="st0" d="M443.89,289.84v-83.93c0-4.36-3.49-7.89-7.82-7.89s-7.82,3.53-7.82,7.89v83.93c0,4.38,3.5,7.92,7.82,7.92s7.82-3.55,7.82-7.92Z"/>
    <path class="st0" d="M479.08,281.97c4.41,0,7.92-3.5,7.92-7.9v-38.37c0-4.34-3.5-7.9-7.92-7.9s-7.82,3.56-7.82,7.9v38.37c0,4.39,3.5,7.9,7.82,7.9Z"/>
    <path class="st0" d="M522.21,249.59c-4.33,0-7.82,3.55-7.82,7.89v16.59c0,4.39,3.49,7.9,7.82,7.9s7.82-3.5,7.82-7.9v-16.59c0-4.35-3.53-7.89-7.82-7.89h0Z"/>
  </g>
</svg>